<?xml version="1.0" encoding="utf-8"?>
<!-- Generator: Adobe Illustrator 16.0.0, SVG Export Plug-In . SVG Version: 6.00 Build 0)  -->
<!DOCTYPE svg PUBLIC "-//W3C//DTD SVG 1.1//EN" "http://www.w3.org/Graphics/SVG/1.1/DTD/svg11.dtd">
<svg version="1.1" id="Layer_9" xmlns="http://www.w3.org/2000/svg" xmlns:xlink="http://www.w3.org/1999/xlink" x="0px" y="0px"
	 width="200px" height="60px" viewBox="0 0 200 60" enable-background="new 0 0 200 60" xml:space="preserve">
<g>
	<g>
		<path fill="#D7C198" d="M18.187,50.938c0,0,16.431-18.581,39.926-13.206c0,0-12.592,5.836-13.206,11.21
			C44.906,48.942,33.85,47.1,18.187,50.938z"/>
		<path fill="#D7C198" d="M15.423,49.096c0.045,0.46,8.292-6.757,10.441-6.757c0,0-7.985-9.06-23.494-3.072
			C2.37,39.267,14.961,44.489,15.423,49.096z"/>
		<path fill="#D7C198" d="M3.752,23.912c0,0,7.678,2.149,13.513,12.132c0,0,8.139,1.842,10.135,4.453c0,0,5.528-3.378,6.91-3.378
			C34.311,37.119,25.711,18.691,3.752,23.912z"/>
		<path fill="#D7C198" d="M30.471,28.519c0,0,5.068,5.222,5.989,7.064c0,0,3.225-0.614,4.146-0.614c0,0,3.225-8.139,12.591-12.438
			C53.198,22.53,40.146,19.305,30.471,28.519z"/>
		<path fill="#D7C198" d="M28.782,3.489l5.375,19.042c0,0-4.454,2.765-4.914,3.992c0,0-3.532-3.685-5.375-3.531
			C22.026,23.145,28.782,3.489,28.782,3.489z"/>
	</g>
	<path fill-rule="evenodd" clip-rule="evenodd" fill="#104578" d="M67.79,22.25c6.067-0.815,12.225-1.449,19.377-1.449
		c11.591,0,21.37,2.853,21.37,12.587c0,6.475-5.297,12.994-18.834,12.994c-5.841,0-11.274-1.585-14.579-4.845
		c-0.091,0-0.181,1.856-0.181,4.12v6.973c0,2.263-1.585,4.12-3.577,4.12c-1.947,0-3.577-1.857-3.577-4.12V22.25L67.79,22.25z
		 M74.943,33.931c0,4.755,3.305,9.373,13.31,9.373c9.916,0,13.129-5.57,13.129-9.871c0-6.293-5.567-9.553-15.167-9.553
		c-3.848,0-7.198,0.543-7.198,0.543c-2.219,0.363-4.075,2.536-4.075,4.8V33.931L74.943,33.931z"/>
	<path fill-rule="evenodd" clip-rule="evenodd" fill="#104578" d="M144.306,31.622c-5.706,2.851-26.896,2.445-26.896,8.195
		c0,3.123,6.25,3.983,11.274,3.983c3.486,0,6.928-0.317,10.186-0.86c-0.77,1.63-3.213,3.079-5.477,3.26c0,0-2.311,0.182-7.063,0.182
		c-10.322,0-17.34-2.037-17.34-6.973c0-9.508,35.315-5.93,35.315-12.496c0-2.988-7.019-3.531-11.636-3.531
		c-6.25,0-12.271,0.679-18.247,2.083c0.544-1.857,2.853-3.577,5.116-3.803c0,0,7.787-0.861,13.99-0.861
		c14.578,0,19.196,2.49,19.196,6.339v14.579c0,2.264-1.855,4.119-4.119,4.119h-0.137c-2.309,0-4.164-1.855-4.164-4.119V31.622
		L144.306,31.622z"/>
	<path fill-rule="evenodd" clip-rule="evenodd" fill="#104578" d="M155.489,24.513c0-2.263,1.855-4.118,4.118-4.118h13.221
		c2.264,0,5.977,0.226,8.239,0.452c0,0,12.225,1.268,12.225,6.021c0,6.022-12.812,6.929-17.022,6.929l14.623,9.778
		c1.902,1.223,1.585,2.264-0.68,2.264h-0.813c-2.265,0-5.614-1.087-7.426-2.444l-12.042-9.009c-1.813-1.359-1.722-2.355,0.226-2.174
		c0,0,0,0,1.855,0c7.291,0,13.583-1.631,13.583-4.799c0-4.03-5.977-4.438-9.463-4.438h-8.828c-2.265,0-4.12,1.855-4.12,4.12v14.624
		c0,2.264-1.722,4.119-3.848,4.119c-2.128,0-3.848-1.855-3.848-4.119V24.513L155.489,24.513z"/>
	<path fill-rule="evenodd" clip-rule="evenodd" fill="#104578" d="M193.609,22.793c0-1.312,1.041-2.264,2.311-2.264
		c1.267,0,2.308,0.951,2.308,2.264c0,1.358-1.041,2.31-2.308,2.31C194.65,25.103,193.609,24.151,193.609,22.793L193.609,22.793z
		 M195.92,24.739c1.04,0,1.854-0.814,1.854-1.946c0-1.087-0.814-1.901-1.854-1.901c-1.041,0-1.857,0.814-1.857,1.901
		C194.062,23.925,194.879,24.739,195.92,24.739L195.92,24.739z M195.467,24.151h-0.409V21.48h0.997c0.635,0,0.95,0.226,0.95,0.77
		c0,0.452-0.315,0.678-0.724,0.725l0.771,1.177h-0.454l-0.678-1.177h-0.453V24.151L195.467,24.151z M195.92,22.657
		c0.361,0,0.633-0.047,0.633-0.452c0-0.317-0.271-0.363-0.545-0.363h-0.541v0.815H195.92L195.92,22.657z"/>
</g>
</svg>
